<?xml version="1.0" encoding="utf-8"?>
<!-- Generator: Adobe Illustrator 24.2.1, SVG Export Plug-In . SVG Version: 6.00 Build 0)  -->
<svg version="1.1" id="Capa_1" xmlns="http://www.w3.org/2000/svg" xmlns:xlink="http://www.w3.org/1999/xlink" x="0px" y="0px"
	 viewBox="0 0 512 512" style="enable-background:new 0 0 512 512;" xml:space="preserve">
<style type="text/css">
	.st0{fill:#2D3A5D;}
</style>
<path class="st0" d="M278.6,261.3l-4.4-3.5c0.1-1.2,0.1-2.4,0-3.6l4.4-3.5c0.8-0.7,1-1.9,0.5-2.8l-4.6-7.9c-0.5-0.9-1.7-1.3-2.6-1
	l-5.2,2.1c-1-0.7-2-1.3-3.1-1.8l-0.8-5.5c-0.1-1.1-1.1-1.9-2.1-1.9h-9.2c-1.1,0-2,0.8-2.1,1.8l-0.8,5.5c-1.1,0.5-2.2,1.1-3.1,1.8
	l-5.2-2.1c-1-0.4-2.1,0-2.6,1l-4.6,7.9c-0.5,0.9-0.3,2.1,0.5,2.8l4.4,3.5c-0.1,1.2-0.1,2.4,0,3.6l-4.4,3.5c-0.8,0.7-1.1,1.9-0.5,2.8
	l4.6,7.9c0.5,0.9,1.7,1.3,2.6,1l5.2-2.1c1,0.7,2,1.3,3.1,1.8l0.8,5.5c0.1,1.1,1,1.9,2.1,1.9h9.2c1.1,0,2-0.8,2.1-1.8l0.8-5.5
	c1.1-0.5,2.2-1.1,3.1-1.8l5.2,2.1c1,0.4,2.1,0,2.6-1l4.6-8C279.6,263.1,279.4,261.9,278.6,261.3z M256,266c-5.5,0-10-4.5-10-10
	s4.5-10,10-10s10,4.5,10,10S261.5,266,256,266z"/>
</svg>
