<?xml version="1.0" encoding="utf-8"?>
<!-- Generator: Adobe Illustrator 24.2.1, SVG Export Plug-In . SVG Version: 6.00 Build 0)  -->
<svg version="1.1" id="Capa_1" xmlns="http://www.w3.org/2000/svg" xmlns:xlink="http://www.w3.org/1999/xlink" x="0px" y="0px"
	 viewBox="0 0 512 512" style="enable-background:new 0 0 512 512;" xml:space="preserve">
<style type="text/css">
	.st0{fill:#2D3A5D;}
</style>
<path class="st0" d="M261.7,267.2h-11.2c0-11.2,6-15,10.1-17.2c1.5-0.7,2.6-1.5,3.4-2.2c1.9-1.9,1.1-4.5,0.7-5.2
	c-1.1-2.6-3.7-5.2-8.6-5.2c-7.9,0-9.3,7.1-9.3,8.6l-11.2-1.5c0.7-6.4,6.4-18.3,20.6-18.3c8.6,0,16.1,4.9,19.1,12
	c2.6,6.4,1.5,13.1-3,17.6c-1.9,1.9-4.1,3-6,4.1C262.8,261.6,261.7,263.5,261.7,267.2z"/>
<path class="st0" d="M263.5,278.4c0,4.1-3.3,7.5-7.5,7.5c-4.1,0-7.5-3.3-7.5-7.5s3.3-7.5,7.5-7.5C260.2,271,263.5,274.3,263.5,278.4
	z"/>
</svg>
